<svg width="544" height="127" viewBox="0 0 544 127" fill="none" xmlns="http://www.w3.org/2000/svg">
<path d="M18.9001 90.1799H6.84559e-05L15.4801 1.79993H33.3001L30.0601 17.8199C35.6401 8.27993 45.5401 0.71993 58.1401 0.71993C61.5601 0.71993 63.9001 1.07993 65.8801 1.43993L62.8201 18.8999C60.3001 18.1799 56.8801 17.6399 53.6401 17.6399C38.5201 17.6399 29.1601 29.5199 26.8201 42.6599L18.9001 90.1799ZM90.7623 91.9799C70.2423 91.9799 59.4423 77.2199 63.2223 55.0799L72.7623 1.79993H91.4823L82.4823 52.9199C79.7823 67.8599 85.3623 75.9599 97.2423 75.9599C110.022 75.9599 120.102 66.9599 122.622 52.7399L131.622 1.79993H150.342L134.682 90.1799H116.322L118.662 77.3999C110.562 87.2999 102.282 91.9799 90.7623 91.9799ZM171.136 90.1799H152.416L167.896 1.79993H186.076L183.916 14.5799C191.656 4.67993 200.476 -7.67708e-05 211.816 -7.67708e-05C232.876 -7.67708e-05 244.216 14.9399 240.256 37.0799L230.716 90.1799H211.996L221.176 38.8799C223.696 24.2999 217.396 16.0199 205.696 16.0199C192.556 16.0199 182.656 25.5599 180.136 39.2399L171.136 90.1799ZM260.305 124.38H241.225L262.825 1.79993H281.545L279.025 15.8399C287.665 5.39993 297.745 -7.67708e-05 309.445 -7.67708e-05C329.065 -7.67708e-05 345.445 14.9399 345.445 38.5199C345.445 68.2199 324.205 91.9799 296.845 91.9799C283.705 91.9799 273.085 84.7799 268.765 73.7999L260.305 124.38ZM295.405 76.1399C312.505 76.1399 326.545 59.5799 326.545 39.7799C326.545 24.2999 317.185 15.8399 305.125 15.8399C288.385 15.8399 273.085 33.1199 273.085 52.1999C273.085 66.9599 283.165 76.1399 295.405 76.1399ZM386.921 91.9799C367.301 91.9799 350.921 77.0399 350.921 53.2799C350.921 23.5799 371.981 -7.67708e-05 399.341 -7.67708e-05C412.481 -7.67708e-05 423.281 7.19993 427.601 17.8199L430.481 1.97993H449.201L433.541 90.1799H415.001L417.341 76.1399C408.701 86.5799 398.441 91.9799 386.921 91.9799ZM391.241 76.1399C408.161 76.1399 423.281 58.6799 423.281 39.7799C423.281 25.1999 413.201 15.8399 400.961 15.8399C383.681 15.8399 369.821 32.2199 369.821 52.0199C369.821 67.4999 379.001 76.1399 391.241 76.1399ZM480.241 126.18C464.941 126.18 451.801 121.5 444.781 113.04L454.861 100.44C461.341 107.1 469.621 110.7 480.961 110.7C496.801 110.7 506.521 102.06 509.581 87.2999L512.281 73.7999C504.721 83.5199 495.541 88.5599 484.381 88.5599C463.861 88.5599 452.881 73.0799 456.841 50.7599L465.841 1.79993H484.561L476.101 49.3199C473.401 64.0799 478.981 72.5399 491.041 72.5399C502.741 72.5399 513.901 62.4599 516.061 49.3199L524.521 1.79993H543.241L528.481 85.6799C523.621 112.68 507.241 126.18 480.241 126.18Z" fill="#0016DF"/>
</svg>
